<!-- Generated by IcoMoon.io -->
<svg version="1.1" xmlns="http://www.w3.org/2000/svg" width="33" height="32" viewBox="0 0 33 32">
<title>bcg-check</title>
<path d="M25.353 2.319v16.232h-17.314v-16.232h17.314zM25.353 0h-17.314c-1.36 0-2.473 1.043-2.473 2.319v16.232c0 1.275 1.113 2.319 2.473 2.319h17.314c1.36 0 2.473-1.043 2.473-2.319v-16.232c0-1.275-1.113-2.319-2.473-2.319z"></path>
<path fill="none" stroke="#000" stroke-linejoin="miter" stroke-linecap="butt" stroke-miterlimit="4" stroke-width="1.3913" d="M26.048 2.319v-0.696h-18.705v17.623h18.705v-16.927zM8.039 0.696h17.314c1.019 0 1.778 0.774 1.778 1.623v16.232c0 0.85-0.759 1.623-1.778 1.623h-17.314c-1.019 0-1.778-0.774-1.778-1.623v-16.232c0-0.85 0.759-1.623 1.778-1.623z"></path>
</svg>
